<?xml version="1.0" encoding="UTF-8" standalone="no"?>
<!DOCTYPE svg PUBLIC "-//W3C//DTD SVG 1.1//EN"
 "http://www.w3.org/Graphics/SVG/1.1/DTD/svg11.dtd">
<!-- Generated by graphviz version 2.43.0 (0)
 -->
<!-- Title: snakemake_dag Pages: 1 -->
<svg width="680pt" height="707pt"
 viewBox="0.00 0.00 680.39 707.00" xmlns="http://www.w3.org/2000/svg" xmlns:xlink="http://www.w3.org/1999/xlink">
<g id="graph0" class="graph" transform="scale(1 1) rotate(0) translate(4 703)">
<title>snakemake_dag</title>
<polygon fill="white" stroke="transparent" points="-4,4 -4,-703 676.39,-703 676.39,4 -4,4"/>
<g id="clust1" class="cluster">
<title>cluster_skull_strip</title>
<path fill="white" stroke="grey" stroke-dasharray="5,2" d="M20,-52C20,-52 400,-52 400,-52 406,-52 412,-58 412,-64 412,-64 412,-283 412,-283 412,-289 406,-295 400,-295 400,-295 20,-295 20,-295 14,-295 8,-289 8,-283 8,-283 8,-64 8,-64 8,-58 14,-52 20,-52"/>
<text text-anchor="middle" x="210" y="-279.8" font-family="Times,serif" font-size="14.00">if &#45;&#45;skull&#45;strip</text>
</g>
<!-- 0 -->
<g id="node1" class="node">
<title>0</title>
<path fill="none" stroke="#8fd856" stroke-width="2" d="M403,-36C403,-36 373,-36 373,-36 367,-36 361,-30 361,-24 361,-24 361,-12 361,-12 361,-6 367,0 373,0 373,0 403,0 403,0 409,0 415,-6 415,-12 415,-12 415,-24 415,-24 415,-30 409,-36 403,-36"/>
<text text-anchor="middle" x="388" y="-15.5" font-family="sans" font-size="10.00">all</text>
</g>
<!-- 1 -->
<g id="node2" class="node">
<title>1</title>
<path fill="none" stroke="#56d8a2" stroke-width="2" d="M531.5,-180C531.5,-180 444.5,-180 444.5,-180 438.5,-180 432.5,-174 432.5,-168 432.5,-168 432.5,-156 432.5,-156 432.5,-150 438.5,-144 444.5,-144 444.5,-144 531.5,-144 531.5,-144 537.5,-144 543.5,-150 543.5,-156 543.5,-156 543.5,-168 543.5,-168 543.5,-174 537.5,-180 531.5,-180"/>
<text text-anchor="middle" x="488" y="-159.5" font-family="sans" font-size="10.00">extract_vasc_mask</text>
</g>
<!-- 1&#45;&gt;0 -->
<g id="edge1" class="edge">
<title>1&#45;&gt;0</title>
<path fill="none" stroke="grey" stroke-width="2" d="M477.63,-143.95C464.15,-122.13 439.55,-83.38 416,-52 414.02,-49.36 411.89,-46.65 409.72,-43.97"/>
<polygon fill="grey" stroke="grey" stroke-width="2" points="412.31,-41.6 403.22,-36.15 406.92,-46.08 412.31,-41.6"/>
</g>
<!-- 2 -->
<g id="node3" class="node">
<title>2</title>
<path fill="none" stroke="#5682d8" stroke-width="2" d="M632,-252C632,-252 528,-252 528,-252 522,-252 516,-246 516,-240 516,-240 516,-228 516,-228 516,-222 522,-216 528,-216 528,-216 632,-216 632,-216 638,-216 644,-222 644,-228 644,-228 644,-240 644,-240 644,-246 638,-252 632,-252"/>
<text text-anchor="middle" x="580" y="-231.5" font-family="sans" font-size="10.00">register_degad_to_gad</text>
</g>
<!-- 2&#45;&gt;1 -->
<g id="edge7" class="edge">
<title>2&#45;&gt;1</title>
<path fill="none" stroke="grey" stroke-width="2" d="M557.26,-215.7C545.56,-206.8 531.14,-195.82 518.49,-186.2"/>
<polygon fill="grey" stroke="grey" stroke-width="2" points="520.56,-183.37 510.48,-180.1 516.32,-188.94 520.56,-183.37"/>
</g>
<!-- 11 -->
<g id="node12" class="node">
<title>11</title>
<path fill="none" stroke="#bed856" stroke-width="2" d="M638.5,-180C638.5,-180 573.5,-180 573.5,-180 567.5,-180 561.5,-174 561.5,-168 561.5,-168 561.5,-156 561.5,-156 561.5,-150 567.5,-144 573.5,-144 573.5,-144 638.5,-144 638.5,-144 644.5,-144 650.5,-150 650.5,-156 650.5,-156 650.5,-168 650.5,-168 650.5,-174 644.5,-180 638.5,-180"/>
<text text-anchor="middle" x="606" y="-159.5" font-family="sans" font-size="10.00">quality_control</text>
</g>
<!-- 2&#45;&gt;11 -->
<g id="edge20" class="edge">
<title>2&#45;&gt;11</title>
<path fill="none" stroke="grey" stroke-width="2" d="M586.43,-215.7C589.36,-207.81 592.89,-198.3 596.14,-189.55"/>
<polygon fill="grey" stroke="grey" stroke-width="2" points="599.45,-190.7 599.65,-180.1 592.88,-188.26 599.45,-190.7"/>
</g>
<!-- 3 -->
<g id="node4" class="node">
<title>3</title>
<path fill="none" stroke="#d86e56" stroke-width="2" d="M301.5,-339C301.5,-339 216.5,-339 216.5,-339 210.5,-339 204.5,-333 204.5,-327 204.5,-327 204.5,-315 204.5,-315 204.5,-309 210.5,-303 216.5,-303 216.5,-303 301.5,-303 301.5,-303 307.5,-303 313.5,-309 313.5,-315 313.5,-315 313.5,-327 313.5,-327 313.5,-333 307.5,-339 301.5,-339"/>
<text text-anchor="middle" x="259" y="-318.5" font-family="sans" font-size="10.00">fuse_degad_image</text>
</g>
<!-- 3&#45;&gt;2 -->
<g id="edge8" class="edge">
<title>3&#45;&gt;2</title>
<path fill="none" stroke="grey" stroke-width="2" d="M313.66,-313.93C344.09,-309.89 382.48,-303.71 416,-295 455.22,-284.8 498.2,-268.9 530.31,-256.02"/>
<polygon fill="grey" stroke="grey" stroke-width="2" points="531.96,-259.13 539.92,-252.13 529.33,-252.64 531.96,-259.13"/>
</g>
<!-- 15 -->
<g id="node16" class="node">
<title>15</title>
<path fill="none" stroke="#61d856" stroke-width="2" d="M297.5,-252C297.5,-252 220.5,-252 220.5,-252 214.5,-252 208.5,-246 208.5,-240 208.5,-240 208.5,-228 208.5,-228 208.5,-222 214.5,-216 220.5,-216 220.5,-216 297.5,-216 297.5,-216 303.5,-216 309.5,-222 309.5,-228 309.5,-228 309.5,-240 309.5,-240 309.5,-246 303.5,-252 297.5,-252"/>
<text text-anchor="middle" x="259" y="-231.5" font-family="sans" font-size="10.00">skull_strip_degad</text>
</g>
<!-- 3&#45;&gt;15 -->
<g id="edge25" class="edge">
<title>3&#45;&gt;15</title>
<path fill="none" stroke="grey" stroke-width="2" d="M259,-302.8C259,-291.16 259,-275.55 259,-262.24"/>
<polygon fill="grey" stroke="grey" stroke-width="2" points="262.5,-262.18 259,-252.18 255.5,-262.18 262.5,-262.18"/>
</g>
<!-- 4 -->
<g id="node5" class="node">
<title>4</title>
<path fill="none" stroke="#56d8d0" stroke-width="2" d="M447.5,-411C447.5,-411 350.5,-411 350.5,-411 344.5,-411 338.5,-405 338.5,-399 338.5,-399 338.5,-387 338.5,-387 338.5,-381 344.5,-375 350.5,-375 350.5,-375 447.5,-375 447.5,-375 453.5,-375 459.5,-381 459.5,-387 459.5,-387 459.5,-399 459.5,-399 459.5,-405 453.5,-411 447.5,-411"/>
<text text-anchor="middle" x="399" y="-390.5" font-family="sans" font-size="10.00">apply_model_coronal</text>
</g>
<!-- 4&#45;&gt;3 -->
<g id="edge9" class="edge">
<title>4&#45;&gt;3</title>
<path fill="none" stroke="grey" stroke-width="2" d="M364.75,-374.88C345.94,-365.47 322.42,-353.71 302.33,-343.67"/>
<polygon fill="grey" stroke="grey" stroke-width="2" points="303.89,-340.53 293.38,-339.19 300.76,-346.79 303.89,-340.53"/>
</g>
<!-- 5 -->
<g id="node6" class="node">
<title>5</title>
<path fill="none" stroke="#d85656" stroke-width="2" d="M439.5,-483C439.5,-483 352.5,-483 352.5,-483 346.5,-483 340.5,-477 340.5,-471 340.5,-471 340.5,-459 340.5,-459 340.5,-453 346.5,-447 352.5,-447 352.5,-447 439.5,-447 439.5,-447 445.5,-447 451.5,-453 451.5,-459 451.5,-459 451.5,-471 451.5,-471 451.5,-477 445.5,-483 439.5,-483"/>
<text text-anchor="middle" x="396" y="-462.5" font-family="sans" font-size="10.00">normalize_minmax</text>
</g>
<!-- 5&#45;&gt;4 -->
<g id="edge12" class="edge">
<title>5&#45;&gt;4</title>
<path fill="none" stroke="grey" stroke-width="2" d="M396.74,-446.7C397.07,-438.98 397.47,-429.71 397.84,-421.11"/>
<polygon fill="grey" stroke="grey" stroke-width="2" points="401.34,-421.25 398.27,-411.1 394.34,-420.95 401.34,-421.25"/>
</g>
<!-- 9 -->
<g id="node10" class="node">
<title>9</title>
<path fill="none" stroke="#a7d856" stroke-width="2" d="M167.5,-411C167.5,-411 82.5,-411 82.5,-411 76.5,-411 70.5,-405 70.5,-399 70.5,-399 70.5,-387 70.5,-387 70.5,-381 76.5,-375 82.5,-375 82.5,-375 167.5,-375 167.5,-375 173.5,-375 179.5,-381 179.5,-387 179.5,-387 179.5,-399 179.5,-399 179.5,-405 173.5,-411 167.5,-411"/>
<text text-anchor="middle" x="125" y="-390.5" font-family="sans" font-size="10.00">apply_model_axial</text>
</g>
<!-- 5&#45;&gt;9 -->
<g id="edge16" class="edge">
<title>5&#45;&gt;9</title>
<path fill="none" stroke="grey" stroke-width="2" d="M340.18,-449.85C300.78,-439.83 246.48,-425.96 189.68,-411.17"/>
<polygon fill="grey" stroke="grey" stroke-width="2" points="190.36,-407.73 179.8,-408.59 188.6,-414.5 190.36,-407.73"/>
</g>
<!-- 10 -->
<g id="node11" class="node">
<title>10</title>
<path fill="none" stroke="#56d892" stroke-width="2" d="M308,-411C308,-411 210,-411 210,-411 204,-411 198,-405 198,-399 198,-399 198,-387 198,-387 198,-381 204,-375 210,-375 210,-375 308,-375 308,-375 314,-375 320,-381 320,-387 320,-387 320,-399 320,-399 320,-405 314,-411 308,-411"/>
<text text-anchor="middle" x="259" y="-390.5" font-family="sans" font-size="10.00">apply_model_sagittal</text>
</g>
<!-- 5&#45;&gt;10 -->
<g id="edge19" class="edge">
<title>5&#45;&gt;10</title>
<path fill="none" stroke="grey" stroke-width="2" d="M362.49,-446.88C344.16,-437.51 321.26,-425.81 301.67,-415.8"/>
<polygon fill="grey" stroke="grey" stroke-width="2" points="303.14,-412.62 292.64,-411.19 299.96,-418.86 303.14,-412.62"/>
</g>
<!-- 6 -->
<g id="node7" class="node">
<title>6</title>
<path fill="none" stroke="#566bd8" stroke-width="2" d="M445.5,-555C445.5,-555 350.5,-555 350.5,-555 344.5,-555 338.5,-549 338.5,-543 338.5,-543 338.5,-531 338.5,-531 338.5,-525 344.5,-519 350.5,-519 350.5,-519 445.5,-519 445.5,-519 451.5,-519 457.5,-525 457.5,-531 457.5,-531 457.5,-543 457.5,-543 457.5,-549 451.5,-555 445.5,-555"/>
<text text-anchor="middle" x="398" y="-534.5" font-family="sans" font-size="10.00">isotropic_resampling</text>
</g>
<!-- 6&#45;&gt;5 -->
<g id="edge14" class="edge">
<title>6&#45;&gt;5</title>
<path fill="none" stroke="grey" stroke-width="2" d="M397.51,-518.7C397.29,-510.98 397.02,-501.71 396.77,-493.11"/>
<polygon fill="grey" stroke="grey" stroke-width="2" points="400.27,-493 396.49,-483.1 393.28,-493.2 400.27,-493"/>
</g>
<!-- 7 -->
<g id="node8" class="node">
<title>7</title>
<path fill="none" stroke="#56d87b" stroke-width="2" d="M445,-627C445,-627 361,-627 361,-627 355,-627 349,-621 349,-615 349,-615 349,-603 349,-603 349,-597 355,-591 361,-591 361,-591 445,-591 445,-591 451,-591 457,-597 457,-603 457,-603 457,-615 457,-615 457,-621 451,-627 445,-627"/>
<text text-anchor="middle" x="403" y="-606.5" font-family="sans" font-size="10.00">n4_bias_correction</text>
</g>
<!-- 7&#45;&gt;6 -->
<g id="edge15" class="edge">
<title>7&#45;&gt;6</title>
<path fill="none" stroke="grey" stroke-width="2" d="M401.76,-590.7C401.21,-582.98 400.55,-573.71 399.94,-565.11"/>
<polygon fill="grey" stroke="grey" stroke-width="2" points="403.43,-564.83 399.22,-555.1 396.44,-565.33 403.43,-564.83"/>
</g>
<!-- 8 -->
<g id="node9" class="node">
<title>8</title>
<path fill="none" stroke="#d88556" stroke-width="2" stroke-dasharray="5,2" d="M308,-483C308,-483 210,-483 210,-483 204,-483 198,-477 198,-471 198,-471 198,-459 198,-459 198,-453 204,-447 210,-447 210,-447 308,-447 308,-447 314,-447 320,-453 320,-459 320,-459 320,-471 320,-471 320,-477 314,-483 308,-483"/>
<text text-anchor="middle" x="259" y="-462.5" font-family="sans" font-size="10.00">download_cnn_model</text>
</g>
<!-- 8&#45;&gt;4 -->
<g id="edge13" class="edge">
<title>8&#45;&gt;4</title>
<path fill="none" stroke="grey" stroke-width="2" d="M293.25,-446.88C312.06,-437.47 335.58,-425.71 355.67,-415.67"/>
<polygon fill="grey" stroke="grey" stroke-width="2" points="357.24,-418.79 364.62,-411.19 354.11,-412.53 357.24,-418.79"/>
</g>
<!-- 8&#45;&gt;9 -->
<g id="edge17" class="edge">
<title>8&#45;&gt;9</title>
<path fill="none" stroke="grey" stroke-width="2" d="M226.22,-446.88C208.37,-437.55 186.1,-425.92 167,-415.94"/>
<polygon fill="grey" stroke="grey" stroke-width="2" points="168.39,-412.72 157.91,-411.19 165.15,-418.92 168.39,-412.72"/>
</g>
<!-- 8&#45;&gt;10 -->
<g id="edge18" class="edge">
<title>8&#45;&gt;10</title>
<path fill="none" stroke="grey" stroke-width="2" d="M259,-446.7C259,-438.98 259,-429.71 259,-421.11"/>
<polygon fill="grey" stroke="grey" stroke-width="2" points="262.5,-421.1 259,-411.1 255.5,-421.1 262.5,-421.1"/>
</g>
<!-- 9&#45;&gt;3 -->
<g id="edge10" class="edge">
<title>9&#45;&gt;3</title>
<path fill="none" stroke="grey" stroke-width="2" d="M157.78,-374.88C175.63,-365.55 197.9,-353.92 217,-343.94"/>
<polygon fill="grey" stroke="grey" stroke-width="2" points="218.85,-346.92 226.09,-339.19 215.61,-340.72 218.85,-346.92"/>
</g>
<!-- 10&#45;&gt;3 -->
<g id="edge11" class="edge">
<title>10&#45;&gt;3</title>
<path fill="none" stroke="grey" stroke-width="2" d="M259,-374.7C259,-366.98 259,-357.71 259,-349.11"/>
<polygon fill="grey" stroke="grey" stroke-width="2" points="262.5,-349.1 259,-339.1 255.5,-349.1 262.5,-349.1"/>
</g>
<!-- 11&#45;&gt;0 -->
<g id="edge2" class="edge">
<title>11&#45;&gt;0</title>
<path fill="none" stroke="grey" stroke-width="2" d="M583.13,-143.92C553.04,-121.73 498.18,-82.25 449,-52 441.02,-47.09 432.25,-42.11 423.91,-37.57"/>
<polygon fill="grey" stroke="grey" stroke-width="2" points="425.55,-34.48 415.09,-32.83 422.24,-40.64 425.55,-34.48"/>
</g>
<!-- 12 -->
<g id="node13" class="node">
<title>12</title>
<path fill="none" stroke="#d6d856" stroke-width="2" d="M200,-108C200,-108 40,-108 40,-108 34,-108 28,-102 28,-96 28,-96 28,-84 28,-84 28,-78 34,-72 40,-72 40,-72 200,-72 200,-72 206,-72 212,-78 212,-84 212,-84 212,-96 212,-96 212,-102 206,-108 200,-108"/>
<text text-anchor="middle" x="120" y="-87.5" font-family="sans" font-size="10.00">extract_vasc_mask_skull_stripped</text>
</g>
<!-- 12&#45;&gt;0 -->
<g id="edge4" class="edge">
<title>12&#45;&gt;0</title>
<path fill="none" stroke="grey" stroke-width="2" d="M162.27,-71.84C180.18,-65.01 201.4,-57.49 221,-52 264.97,-39.68 316.7,-30.21 350.81,-24.64"/>
<polygon fill="grey" stroke="grey" stroke-width="2" points="351.48,-28.08 360.8,-23.04 350.37,-21.16 351.48,-28.08"/>
</g>
<!-- 13 -->
<g id="node14" class="node">
<title>13</title>
<path fill="none" stroke="#569ad8" stroke-width="2" d="M162.5,-252C162.5,-252 97.5,-252 97.5,-252 91.5,-252 85.5,-246 85.5,-240 85.5,-240 85.5,-228 85.5,-228 85.5,-222 91.5,-216 97.5,-216 97.5,-216 162.5,-216 162.5,-216 168.5,-216 174.5,-222 174.5,-228 174.5,-228 174.5,-240 174.5,-240 174.5,-246 168.5,-252 162.5,-252"/>
<text text-anchor="middle" x="130" y="-231.5" font-family="sans" font-size="10.00">skull_strip_gad</text>
</g>
<!-- 13&#45;&gt;12 -->
<g id="edge21" class="edge">
<title>13&#45;&gt;12</title>
<path fill="none" stroke="grey" stroke-width="2" d="M128.79,-215.87C127.09,-191.67 123.96,-147.21 121.93,-118.39"/>
<polygon fill="grey" stroke="grey" stroke-width="2" points="125.4,-117.92 121.21,-108.19 118.42,-118.41 125.4,-117.92"/>
</g>
<!-- 14 -->
<g id="node15" class="node">
<title>14</title>
<path fill="none" stroke="#56d8b9" stroke-width="2" d="M347,-180C347,-180 171,-180 171,-180 165,-180 159,-174 159,-168 159,-168 159,-156 159,-156 159,-150 165,-144 171,-144 171,-144 347,-144 347,-144 353,-144 359,-150 359,-156 359,-156 359,-168 359,-168 359,-174 353,-180 347,-180"/>
<text text-anchor="middle" x="259" y="-159.5" font-family="sans" font-size="10.00">register_degad_to_gad_skull_stripped</text>
</g>
<!-- 13&#45;&gt;14 -->
<g id="edge23" class="edge">
<title>13&#45;&gt;14</title>
<path fill="none" stroke="grey" stroke-width="2" d="M161.56,-215.88C178.66,-206.6 199.98,-195.03 218.32,-185.08"/>
<polygon fill="grey" stroke="grey" stroke-width="2" points="220.2,-188.04 227.32,-180.19 216.86,-181.88 220.2,-188.04"/>
</g>
<!-- 17 -->
<g id="node18" class="node">
<title>17</title>
<path fill="none" stroke="#d8cb56" stroke-width="2" d="M380,-108C380,-108 242,-108 242,-108 236,-108 230,-102 230,-96 230,-96 230,-84 230,-84 230,-78 236,-72 242,-72 242,-72 380,-72 380,-72 386,-72 392,-78 392,-84 392,-84 392,-96 392,-96 392,-102 386,-108 380,-108"/>
<text text-anchor="middle" x="311" y="-87.5" font-family="sans" font-size="10.00">quality_control_skull_stripped</text>
</g>
<!-- 13&#45;&gt;17 -->
<g id="edge5" class="edge">
<title>13&#45;&gt;17</title>
<path fill="none" stroke="grey" stroke-width="2" d="M129.13,-215.66C129.09,-195.87 132.12,-163.7 150,-144 161.11,-131.75 193.51,-120.04 226.35,-110.76"/>
<polygon fill="grey" stroke="grey" stroke-width="2" points="227.36,-114.11 236.07,-108.08 225.5,-107.36 227.36,-114.11"/>
</g>
<!-- 14&#45;&gt;12 -->
<g id="edge22" class="edge">
<title>14&#45;&gt;12</title>
<path fill="none" stroke="grey" stroke-width="2" d="M225,-143.88C206.4,-134.51 183.17,-122.81 163.29,-112.8"/>
<polygon fill="grey" stroke="grey" stroke-width="2" points="164.64,-109.56 154.13,-108.19 161.49,-115.81 164.64,-109.56"/>
</g>
<!-- 14&#45;&gt;17 -->
<g id="edge6" class="edge">
<title>14&#45;&gt;17</title>
<path fill="none" stroke="grey" stroke-width="2" d="M271.85,-143.7C278.03,-135.39 285.54,-125.28 292.32,-116.14"/>
<polygon fill="grey" stroke="grey" stroke-width="2" points="295.14,-118.22 298.29,-108.1 289.52,-114.04 295.14,-118.22"/>
</g>
<!-- 15&#45;&gt;14 -->
<g id="edge24" class="edge">
<title>15&#45;&gt;14</title>
<path fill="none" stroke="grey" stroke-width="2" d="M259,-215.7C259,-207.98 259,-198.71 259,-190.11"/>
<polygon fill="grey" stroke="grey" stroke-width="2" points="262.5,-190.1 259,-180.1 255.5,-190.1 262.5,-190.1"/>
</g>
<!-- 16 -->
<g id="node17" class="node">
<title>16</title>
<path fill="none" stroke="#000000" stroke-width="2" stroke-dasharray="5,2" d="M505.5,-699C505.5,-699 470.5,-699 470.5,-699 464.5,-699 458.5,-693 458.5,-687 458.5,-687 458.5,-675 458.5,-675 458.5,-669 464.5,-663 470.5,-663 470.5,-663 505.5,-663 505.5,-663 511.5,-663 517.5,-669 517.5,-675 517.5,-675 517.5,-687 517.5,-687 517.5,-693 511.5,-699 505.5,-699"/>
<text text-anchor="middle" x="488" y="-678.5" font-family="sans" font-size="10.00">T1w&#45;gad</text>
</g>
<!-- 16&#45;&gt;1 -->
<g id="edge30" class="edge">
<title>16&#45;&gt;1</title>
<path fill="none" stroke="grey" stroke-width="2" d="M488,-662.95C488,-636.29 488,-583.11 488,-538 488,-538 488,-538 488,-320 488,-274.65 488,-221.93 488,-190.58"/>
<polygon fill="grey" stroke="grey" stroke-width="2" points="491.5,-190.42 488,-180.42 484.5,-190.42 491.5,-190.42"/>
</g>
<!-- 16&#45;&gt;2 -->
<g id="edge28" class="edge">
<title>16&#45;&gt;2</title>
<path fill="none" stroke="grey" stroke-width="2" d="M501.78,-662.79C520.86,-637.18 553,-586.8 553,-538 553,-538 553,-538 553,-392 553,-345.98 564.41,-293.46 572.39,-262.33"/>
<polygon fill="grey" stroke="grey" stroke-width="2" points="575.88,-262.82 575.05,-252.26 569.11,-261.03 575.88,-262.82"/>
</g>
<!-- 16&#45;&gt;7 -->
<g id="edge26" class="edge">
<title>16&#45;&gt;7</title>
<path fill="none" stroke="grey" stroke-width="2" d="M466.99,-662.7C456.28,-653.88 443.11,-643.03 431.5,-633.47"/>
<polygon fill="grey" stroke="grey" stroke-width="2" points="433.71,-630.76 423.77,-627.1 429.26,-636.16 433.71,-630.76"/>
</g>
<!-- 16&#45;&gt;11 -->
<g id="edge29" class="edge">
<title>16&#45;&gt;11</title>
<path fill="none" stroke="grey" stroke-width="2" d="M517.56,-672.09C569.58,-656.18 672,-615.07 672,-538 672,-538 672,-538 672,-320 672,-273.01 673.57,-258.25 653,-216 647.97,-205.67 640.36,-195.82 632.71,-187.48"/>
<polygon fill="grey" stroke="grey" stroke-width="2" points="635.22,-185.04 625.75,-180.27 630.18,-189.9 635.22,-185.04"/>
</g>
<!-- 16&#45;&gt;13 -->
<g id="edge27" class="edge">
<title>16&#45;&gt;13</title>
<path fill="none" stroke="grey" stroke-width="2" d="M458.39,-677.07C358.78,-666.42 42,-625.66 42,-538 42,-538 42,-538 42,-392 42,-339.73 79.57,-288.74 105.61,-259.67"/>
<polygon fill="grey" stroke="grey" stroke-width="2" points="108.41,-261.8 112.61,-252.07 103.27,-257.05 108.41,-261.8"/>
</g>
<!-- 17&#45;&gt;0 -->
<g id="edge3" class="edge">
<title>17&#45;&gt;0</title>
<path fill="none" stroke="grey" stroke-width="2" d="M330.03,-71.7C339.54,-63.05 351.21,-52.45 361.57,-43.03"/>
<polygon fill="grey" stroke="grey" stroke-width="2" points="364.14,-45.42 369.19,-36.1 359.43,-40.24 364.14,-45.42"/>
</g>
</g>
</svg>
