<?xml version="1.0" encoding="UTF-8" standalone="no"?>
<!DOCTYPE svg PUBLIC "-//W3C//DTD SVG 1.1//EN"
 "http://www.w3.org/Graphics/SVG/1.1/DTD/svg11.dtd">
<!-- Generated by graphviz version 12.2.1 (20241206.2353)
 -->
<!-- Title: snakemake_dag Pages: 1 -->
<svg width="213pt" height="447pt"
 viewBox="21.60 21.60 191.22 425.60" xmlns="http://www.w3.org/2000/svg" xmlns:xlink="http://www.w3.org/1999/xlink">
<g id="graph0" class="graph" transform="scale(1 1) rotate(0) translate(25.6 421.6)">
<title>snakemake_dag</title>
<polygon fill="white" stroke="none" points="-4,4 -4,-400 165.62,-400 165.62,4 -4,4"/>
<!-- 1 -->
<g id="node1" class="node">
<title>1</title>
<path fill="none" stroke="#56d8d8" stroke-width="2" d="M132.75,-324C132.75,-324 59,-324 59,-324 53,-324 47,-318 47,-312 47,-312 47,-300 47,-300 47,-294 53,-288 59,-288 59,-288 132.75,-288 132.75,-288 138.75,-288 144.75,-294 144.75,-300 144.75,-300 144.75,-312 144.75,-312 144.75,-318 138.75,-324 132.75,-324"/>
<text text-anchor="middle" x="95.88" y="-302.12" font-family="sans" font-size="10.00">n4_bias_correction</text>
</g>
<!-- 2 -->
<g id="node2" class="node">
<title>2</title>
<path fill="none" stroke="#d6d856" stroke-width="2" d="M136.5,-252C136.5,-252 55.25,-252 55.25,-252 49.25,-252 43.25,-246 43.25,-240 43.25,-240 43.25,-228 43.25,-228 43.25,-222 49.25,-216 55.25,-216 55.25,-216 136.5,-216 136.5,-216 142.5,-216 148.5,-222 148.5,-228 148.5,-228 148.5,-240 148.5,-240 148.5,-246 142.5,-252 136.5,-252"/>
<text text-anchor="middle" x="95.88" y="-230.12" font-family="sans" font-size="10.00">isotropic_resampling</text>
</g>
<!-- 1&#45;&gt;2 -->
<g id="edge2" class="edge">
<title>1&#45;&gt;2</title>
<path fill="none" stroke="grey" stroke-width="2" d="M95.88,-287.34C95.88,-280.75 95.88,-273.08 95.88,-265.67"/>
<polygon fill="grey" stroke="grey" stroke-width="2" points="99.38,-265.93 95.88,-255.93 92.38,-265.93 99.38,-265.93"/>
</g>
<!-- 3 -->
<g id="node3" class="node">
<title>3</title>
<path fill="none" stroke="#59d856" stroke-width="2" d="M97.75,-180C97.75,-180 12,-180 12,-180 6,-180 0,-174 0,-168 0,-168 0,-156 0,-156 0,-150 6,-144 12,-144 12,-144 97.75,-144 97.75,-144 103.75,-144 109.75,-150 109.75,-156 109.75,-156 109.75,-168 109.75,-168 109.75,-174 103.75,-180 97.75,-180"/>
<text text-anchor="middle" x="54.88" y="-158.12" font-family="sans" font-size="10.00">download_cnn_model</text>
</g>
<!-- 2&#45;&gt;3 -->
<g id="edge3" class="edge">
<title>2&#45;&gt;3</title>
<path fill="none" stroke="grey" stroke-width="2" d="M85.53,-215.34C81.38,-208.26 76.5,-199.92 71.86,-192"/>
<polygon fill="grey" stroke="grey" stroke-width="2" points="74.96,-190.37 66.89,-183.51 68.92,-193.91 74.96,-190.37"/>
</g>
<!-- 4 -->
<g id="node4" class="node">
<title>4</title>
<path fill="none" stroke="#d87d56" stroke-width="2" d="M119.25,-108C119.25,-108 72.5,-108 72.5,-108 66.5,-108 60.5,-102 60.5,-96 60.5,-96 60.5,-84 60.5,-84 60.5,-78 66.5,-72 72.5,-72 72.5,-72 119.25,-72 119.25,-72 125.25,-72 131.25,-78 131.25,-84 131.25,-84 131.25,-96 131.25,-96 131.25,-102 125.25,-108 119.25,-108"/>
<text text-anchor="middle" x="95.88" y="-86.12" font-family="sans" font-size="10.00">apply_model</text>
</g>
<!-- 2&#45;&gt;4 -->
<g id="edge4" class="edge">
<title>2&#45;&gt;4</title>
<path fill="none" stroke="grey" stroke-width="2" d="M105.66,-215.45C110.69,-205.41 116.31,-192.37 118.88,-180 122.13,-164.33 122.13,-159.67 118.88,-144 117.21,-135.98 114.26,-127.68 111.03,-120.09"/>
<polygon fill="grey" stroke="grey" stroke-width="2" points="114.32,-118.88 106.93,-111.29 107.98,-121.84 114.32,-118.88"/>
</g>
<!-- 3&#45;&gt;4 -->
<g id="edge5" class="edge">
<title>3&#45;&gt;4</title>
<path fill="none" stroke="grey" stroke-width="2" d="M65.22,-143.34C69.37,-136.26 74.25,-127.92 78.89,-120"/>
<polygon fill="grey" stroke="grey" stroke-width="2" points="81.83,-121.91 83.86,-111.51 75.79,-118.37 81.83,-121.91"/>
</g>
<!-- 5 -->
<g id="node5" class="node">
<title>5</title>
<path fill="none" stroke="#568ad8" stroke-width="2" d="M110.88,-36C110.88,-36 80.88,-36 80.88,-36 74.88,-36 68.88,-30 68.88,-24 68.88,-24 68.88,-12 68.88,-12 68.88,-6 74.88,0 80.88,0 80.88,0 110.88,0 110.88,0 116.88,0 122.88,-6 122.88,-12 122.88,-12 122.88,-24 122.88,-24 122.88,-30 116.88,-36 110.88,-36"/>
<text text-anchor="middle" x="95.88" y="-14.12" font-family="sans" font-size="10.00">all</text>
</g>
<!-- 4&#45;&gt;5 -->
<g id="edge6" class="edge">
<title>4&#45;&gt;5</title>
<path fill="none" stroke="grey" stroke-width="2" d="M95.88,-71.34C95.88,-64.75 95.88,-57.08 95.88,-49.67"/>
<polygon fill="grey" stroke="grey" stroke-width="2" points="99.38,-49.93 95.88,-39.93 92.38,-49.93 99.38,-49.93"/>
</g>
<!-- Gadolinium&#45;enhanced T1w -->
<g id="node6" class="node">
<title>Gadolinium&#45;enhanced T1w</title>
<path fill="none" stroke="black" stroke-width="2" d="M149.62,-396C149.62,-396 42.12,-396 42.12,-396 36.12,-396 30.12,-390 30.12,-384 30.12,-384 30.12,-372 30.12,-372 30.12,-366 36.12,-360 42.12,-360 42.12,-360 149.62,-360 149.62,-360 155.62,-360 161.62,-366 161.62,-372 161.62,-372 161.62,-384 161.62,-384 161.62,-390 155.62,-396 149.62,-396"/>
<text text-anchor="middle" x="95.88" y="-374.12" font-family="sans" font-size="10.00">Gadolinium&#45;enhanced T1w</text>
</g>
<!-- Gadolinium&#45;enhanced T1w&#45;&gt;1 -->
<g id="edge1" class="edge">
<title>Gadolinium&#45;enhanced T1w&#45;&gt;1</title>
<path fill="none" stroke="grey" stroke-width="2" stroke-dasharray="5,2" d="M95.88,-359.34C95.88,-352.75 95.88,-345.08 95.88,-337.67"/>
<polygon fill="grey" stroke="grey" stroke-width="2" points="99.38,-337.93 95.88,-327.93 92.38,-337.93 99.38,-337.93"/>
</g>
</g>
</svg>